<svg width="122" height="35" viewBox="0 0 122 35" fill="none" xmlns="http://www.w3.org/2000/svg">
<path d="M47.44 16.24H50.56V27H47.44V16.24ZM49 14.74C48.4267 14.74 47.96 14.5733 47.6 14.24C47.24 13.9067 47.06 13.4933 47.06 13C47.06 12.5067 47.24 12.0933 47.6 11.76C47.96 11.4267 48.4267 11.26 49 11.26C49.5733 11.26 50.04 11.42 50.4 11.74C50.76 12.06 50.94 12.46 50.94 12.94C50.94 13.46 50.76 13.8933 50.4 14.24C50.04 14.5733 49.5733 14.74 49 14.74ZM70.2716 15.8L66.6076 27H63.8236L61.3596 19.416L58.8156 27H56.0476L52.3676 15.8H55.0556L57.5836 23.672L60.2236 15.8H62.6236L65.1836 23.736L67.7916 15.8H70.2716ZM77.002 27.192C75.8393 27.192 74.7887 26.9413 73.85 26.44C72.922 25.9387 72.1913 25.2507 71.658 24.376C71.1353 23.4907 70.874 22.4987 70.874 21.4C70.874 20.3013 71.1353 19.3147 71.658 18.44C72.1913 17.5547 72.922 16.8613 73.85 16.36C74.7887 15.8587 75.8393 15.608 77.002 15.608C78.1647 15.608 79.21 15.8587 80.138 16.36C81.066 16.8613 81.7967 17.5547 82.33 18.44C82.8633 19.3147 83.13 20.3013 83.13 21.4C83.13 22.4987 82.8633 23.4907 82.33 24.376C81.7967 25.2507 81.066 25.9387 80.138 26.44C79.21 26.9413 78.1647 27.192 77.002 27.192ZM77.002 24.984C77.6633 24.984 78.2607 24.8347 78.794 24.536C79.3273 24.2267 79.7433 23.8 80.042 23.256C80.3513 22.712 80.506 22.0933 80.506 21.4C80.506 20.7067 80.3513 20.088 80.042 19.544C79.7433 19 79.3273 18.5787 78.794 18.28C78.2607 17.9707 77.6633 17.816 77.002 17.816C76.3407 17.816 75.7433 17.9707 75.21 18.28C74.6767 18.5787 74.2553 19 73.946 19.544C73.6473 20.088 73.498 20.7067 73.498 21.4C73.498 22.0933 73.6473 22.712 73.946 23.256C74.2553 23.8 74.6767 24.2267 75.21 24.536C75.7433 24.8347 76.3407 24.984 77.002 24.984ZM92.214 27L90.054 23.88H89.926H87.67V27H85.078V15.8H89.926C90.918 15.8 91.7767 15.9653 92.502 16.296C93.238 16.6267 93.8033 17.096 94.198 17.704C94.5927 18.312 94.79 19.032 94.79 19.864C94.79 20.696 94.5873 21.416 94.182 22.024C93.7873 22.6213 93.222 23.08 92.486 23.4L94.998 27H92.214ZM92.166 19.864C92.166 19.2347 91.9633 18.7547 91.558 18.424C91.1527 18.0827 90.5607 17.912 89.782 17.912H87.67V21.816H89.782C90.5607 21.816 91.1527 21.6453 91.558 21.304C91.9633 20.9627 92.166 20.4827 92.166 19.864ZM96.8436 15.8H99.4356V24.888H105.052V27H96.8436V15.8ZM106.5 15.8H111.588C112.804 15.8 113.876 16.0347 114.804 16.504C115.743 16.9627 116.468 17.6133 116.98 18.456C117.503 19.2987 117.764 20.28 117.764 21.4C117.764 22.52 117.503 23.5013 116.98 24.344C116.468 25.1867 115.743 25.8427 114.804 26.312C113.876 26.7707 112.804 27 111.588 27H106.5V15.8ZM111.46 24.872C112.58 24.872 113.471 24.5627 114.132 23.944C114.804 23.3147 115.14 22.4667 115.14 21.4C115.14 20.3333 114.804 19.4907 114.132 18.872C113.471 18.2427 112.58 17.928 111.46 17.928H109.092V24.872H111.46Z" fill="#F6F5F4"/>
<path d="M10.3906 25.1562H4.92188V24.0625H9.29688V21.875H10.3906V25.1562Z" fill="#EECF6D"/>
<path d="M9.29688 21.875H5.24234L3.60172 20.2344H1.64062V19.1406H4.05453L5.69516 20.7812H9.29688V21.875Z" fill="#EECF6D"/>
<path d="M8.20312 27.8906H11.4844V28.9844H8.20312V27.8906Z" fill="#EECF6D"/>
<path d="M15.8594 31.7188H14.7656V26.0236L15.8594 24.9298V21.3281H16.9531V25.3827L15.8594 26.4764V31.7188Z" fill="#EECF6D"/>
<path d="M14.9259 26.6366L12.5781 24.2889V17.5H13.6719V23.8361L15.6991 25.8634L14.9259 26.6366Z" fill="#EECF6D"/>
<path d="M9.29688 17.5H10.3906V20.7812H9.29688V17.5Z" fill="#EECF6D"/>
<path d="M25.9295 22.9688H21.875V21.875H25.4767L27.1173 20.2344H31.1719V21.3281H27.5702L25.9295 22.9688Z" fill="#EECF6D"/>
<path d="M25.1562 30.0781H24.0625V25.7031H28.9844V26.7969H25.1562V30.0781Z" fill="#EECF6D"/>
<path d="M20.7812 31.1719H19.6875V26.5705L20.7812 25.4767V22.9688H21.875V25.9295L20.7812 27.0233V31.1719Z" fill="#EECF6D"/>
<path d="M21.875 21.8749H20.7812V19.461L23.6759 16.5664L24.4491 17.3397L21.875 19.9138V21.8749Z" fill="#EECF6D"/>
<path d="M31.1719 17.5H32.2656V20.2344H31.1719V17.5Z" fill="#EECF6D"/>
<path d="M15.8594 17.5H16.9531V20.2344H15.8594V17.5Z" fill="#EECF6D"/>
<path d="M9.84375 22.4219C10.4478 22.4219 10.9375 21.9322 10.9375 21.3281C10.9375 20.7241 10.4478 20.2344 9.84375 20.2344C9.23969 20.2344 8.75 20.7241 8.75 21.3281C8.75 21.9322 9.23969 22.4219 9.84375 22.4219Z" fill="#EECF6D"/>
<path d="M16.4062 21.875C17.0103 21.875 17.5 21.3853 17.5 20.7812C17.5 20.1772 17.0103 19.6875 16.4062 19.6875C15.8022 19.6875 15.3125 20.1772 15.3125 20.7812C15.3125 21.3853 15.8022 21.875 16.4062 21.875Z" fill="#EECF6D"/>
<path d="M21.3281 23.5156C21.9322 23.5156 22.4219 23.0259 22.4219 22.4219C22.4219 21.8178 21.9322 21.3281 21.3281 21.3281C20.7241 21.3281 20.2344 21.8178 20.2344 22.4219C20.2344 23.0259 20.7241 23.5156 21.3281 23.5156Z" fill="#EECF6D"/>
<path d="M20.2344 32.8125C20.8384 32.8125 21.3281 32.3228 21.3281 31.7188C21.3281 31.1147 20.8384 30.625 20.2344 30.625C19.6303 30.625 19.1406 31.1147 19.1406 31.7188C19.1406 32.3228 19.6303 32.8125 20.2344 32.8125Z" fill="#EECF6D"/>
<path d="M31.7188 21.875C32.3228 21.875 32.8125 21.3853 32.8125 20.7812C32.8125 20.1772 32.3228 19.6875 31.7188 19.6875C31.1147 19.6875 30.625 20.1772 30.625 20.7812C30.625 21.3853 31.1147 21.875 31.7188 21.875Z" fill="#EECF6D"/>
<path d="M29.5312 27.3438C30.1353 27.3438 30.625 26.8541 30.625 26.25C30.625 25.6459 30.1353 25.1562 29.5312 25.1562C28.9272 25.1562 28.4375 25.6459 28.4375 26.25C28.4375 26.8541 28.9272 27.3438 29.5312 27.3438Z" fill="#EECF6D"/>
<path d="M24.6094 31.7187C25.2134 31.7187 25.7031 31.2291 25.7031 30.625C25.7031 30.0209 25.2134 29.5312 24.6094 29.5312C24.0053 29.5312 23.5156 30.0209 23.5156 30.625C23.5156 31.2291 24.0053 31.7187 24.6094 31.7187Z" fill="#EECF6D"/>
<path d="M15.3125 33.3594C15.9166 33.3594 16.4062 32.8697 16.4062 32.2656C16.4062 31.6616 15.9166 31.1719 15.3125 31.1719C14.7084 31.1719 14.2188 31.6616 14.2188 32.2656C14.2188 32.8697 14.7084 33.3594 15.3125 33.3594Z" fill="#EECF6D"/>
<path d="M4.375 25.7031C4.97906 25.7031 5.46875 25.2134 5.46875 24.6094C5.46875 24.0053 4.97906 23.5156 4.375 23.5156C3.77094 23.5156 3.28125 24.0053 3.28125 24.6094C3.28125 25.2134 3.77094 25.7031 4.375 25.7031Z" fill="#EECF6D"/>
<path d="M7.65625 29.5313C8.26031 29.5313 8.75 29.0416 8.75 28.4375C8.75 27.8334 8.26031 27.3438 7.65625 27.3438C7.05219 27.3438 6.5625 27.8334 6.5625 28.4375C6.5625 29.0416 7.05219 29.5313 7.65625 29.5313Z" fill="#EECF6D"/>
<path d="M12.0312 29.5313C12.6353 29.5313 13.125 29.0416 13.125 28.4375C13.125 27.8334 12.6353 27.3438 12.0312 27.3438C11.4272 27.3438 10.9375 27.8334 10.9375 28.4375C10.9375 29.0416 11.4272 29.5313 12.0312 29.5313Z" fill="#EECF6D"/>
<path d="M24.3289 5.97338C23.0016 4.2633 21.3796 3.03939 19.5891 2.49854C20.224 3.43369 20.7567 4.78557 21.1822 6.40104C22.3131 6.29986 23.3664 6.15385 24.3289 5.97338Z" fill="#EECF6D"/>
<path d="M21.0453 11.8942C20.872 10.2607 20.6275 8.81039 20.3393 7.55859C19.3976 7.62313 18.4449 7.65648 17.4999 7.65648C16.5549 7.65648 15.6023 7.62313 14.6611 7.55859C14.3729 8.81039 14.1284 10.2613 13.9551 11.8942C15.1062 11.9834 16.2913 12.0315 17.4999 12.0315C18.7085 12.0315 19.8936 11.9834 21.0453 11.8942Z" fill="#EECF6D"/>
<path d="M13.4088 2.17578C11.2339 2.75492 9.24381 3.78469 7.54248 5.15953C8.12982 5.36625 8.78607 5.5582 9.51178 5.72938C10.6192 4.1943 11.9432 2.97859 13.4088 2.17578Z" fill="#EECF6D"/>
<path d="M17.5 13.1251C16.2498 13.1251 15.0325 13.0764 13.8529 12.9878C13.7375 14.3796 13.6719 15.8857 13.6719 17.5001H21.3281C21.3281 15.8857 21.2625 14.3796 21.1471 12.9878C19.9675 13.0764 18.7502 13.1251 17.5 13.1251Z" fill="#EECF6D"/>
<path d="M10.6711 5.97344C11.6336 6.15445 12.6869 6.29992 13.8179 6.40109C14.2433 4.78562 14.776 3.43375 15.4109 2.49805C13.621 3.03891 11.9984 4.26336 10.6711 5.97344Z" fill="#EECF6D"/>
<path d="M12.8751 11.7985C13.038 10.2656 13.2666 8.79885 13.5603 7.46885C12.3167 7.34963 11.1087 7.17463 9.98373 6.94385C9.21264 8.13604 8.56951 9.50924 8.08936 11.0175C9.57139 11.3593 11.1797 11.6256 12.8751 11.7985Z" fill="#EECF6D"/>
<path d="M17.5 6.5625C18.3892 6.5625 19.2456 6.53461 20.0681 6.48484C19.3025 3.7193 18.3187 2.1875 17.5 2.1875C16.6813 2.1875 15.6975 3.7193 14.9319 6.48484C15.7544 6.53461 16.6108 6.5625 17.5 6.5625Z" fill="#EECF6D"/>
<path d="M3.2107 10.6123C2.205 12.6954 1.64062 15.0316 1.64062 17.5002H6.01562C6.01562 15.5057 6.26664 13.5933 6.72492 11.8236C5.43758 11.4786 4.2618 11.0706 3.2107 10.6123Z" fill="#EECF6D"/>
<path d="M22.2292 12.894C22.3567 14.4051 22.4217 15.9615 22.4217 17.4998H27.8905C27.8905 15.5945 27.6515 13.7712 27.2178 12.0874C25.6773 12.4445 24.0039 12.7179 22.2292 12.894Z" fill="#EECF6D"/>
<path d="M28.3889 5.97559C27.7091 6.24574 26.949 6.48473 26.1287 6.6909C26.873 7.90223 27.4942 9.26996 27.9651 10.7558C29.1753 10.4332 30.286 10.058 31.272 9.6391C30.4938 8.27848 29.5204 7.04473 28.3889 5.97559Z" fill="#EECF6D"/>
<path d="M28.2751 11.8236C28.7334 13.5933 28.9844 15.5057 28.9844 17.5002H33.3594C33.3594 15.0316 32.7951 12.6954 31.7894 10.6123C30.7383 11.0706 29.5625 11.4786 28.2751 11.8236Z" fill="#EECF6D"/>
<path d="M25.0163 6.94434C23.8913 7.17512 22.6833 7.35012 21.4397 7.46934C21.7334 8.79879 21.962 10.2661 22.1249 11.7989C23.8208 11.6261 25.4286 11.3598 26.9106 11.0186C26.4305 9.50973 25.7879 8.13652 25.0163 6.94434Z" fill="#EECF6D"/>
<path d="M21.5911 2.17578C23.0567 2.97859 24.3807 4.1943 25.4881 5.72883C26.2138 5.5582 26.8701 5.3657 27.4574 5.15898C25.7566 3.78523 23.766 2.75547 21.5911 2.17578Z" fill="#EECF6D"/>
<path d="M12.7706 12.894C10.996 12.7179 9.32258 12.4445 7.78203 12.0874C7.34836 13.7712 7.10938 15.5945 7.10938 17.4998H12.5781C12.5781 15.9615 12.6432 14.4051 12.7706 12.894Z" fill="#EECF6D"/>
<path d="M8.87139 6.6909C8.05162 6.48473 7.29092 6.24574 6.61115 5.97559C5.47967 7.04527 4.50623 8.27902 3.72803 9.63965C4.71404 10.0586 5.82475 10.4337 7.03498 10.7564C7.50584 9.26996 8.12709 7.90223 8.87139 6.6909Z" fill="#EECF6D"/>
</svg>
